<svg xmlns="http://www.w3.org/2000/svg" width="140.758" height="31.168" viewBox="0 0 140.758 31.168">
  <g id="Group_147" data-name="Group 147" transform="translate(-40.165 -84.838)">
    <g id="Group_146" data-name="Group 146" transform="translate(82.627 89.358)">
      <path id="Path_197" data-name="Path 197" d="M207.014,108.77c0,3.269-2.005,6.849-8.238,6.849h-5.615v6.6a1.408,1.408,0,0,1-1.419,1.386,1.381,1.381,0,0,1-1.389-1.386V103.339a1.408,1.408,0,0,1,1.389-1.418h7.034C205.008,101.921,207.014,105.5,207.014,108.77Zm-2.808,0c0-2.006-1.111-4.2-5.708-4.2h-5.337v8.392H198.5C203.1,112.966,204.206,110.775,204.206,108.77Z" transform="translate(-190.353 -101.612)" fill="#a4a9ad"/>
      <path id="Path_198" data-name="Path 198" d="M289.164,111.9c-.124,6.449-4.257,11.077-10.829,11.077-6.6,0-10.706-4.628-10.83-11.077.124-6.448,4.228-11.076,10.83-11.076C284.907,100.827,289.04,105.455,289.164,111.9Zm-2.807,0c0-4.751-2.931-8.453-8.022-8.453-5.122,0-8.023,3.7-8.023,8.453s2.9,8.454,8.023,8.454C283.426,120.357,286.357,116.655,286.357,111.9Z" transform="translate(-245.692 -100.827)" fill="#a4a9ad"/>
      <path id="Path_199" data-name="Path 199" d="M393.14,103.409v18.42a1.381,1.381,0,0,1-1.388,1.386,1.409,1.409,0,0,1-1.421-1.386V104.3l-7.127,17.62a2.155,2.155,0,0,1-3.949,0l-7.127-17.62v17.526a1.407,1.407,0,0,1-1.42,1.386,1.381,1.381,0,0,1-1.387-1.386v-18.42a2.028,2.028,0,0,1,2-2.037h1.018a2.086,2.086,0,0,1,1.882,1.3l7,17.464,7.005-17.464a2.084,2.084,0,0,1,1.881-1.3h1.017A2.028,2.028,0,0,1,393.14,103.409Z" transform="translate(-318.723 -101.218)" fill="#a4a9ad"/>
      <path id="Path_200" data-name="Path 200" d="M492.4,103.247a1.292,1.292,0,0,1-1.326,1.3h-6.263v17.68a1.408,1.408,0,0,1-1.421,1.386A1.381,1.381,0,0,1,482,122.223v-17.68h-6.294a1.265,1.265,0,0,1-1.3-1.3,1.29,1.29,0,0,1,1.3-1.326h15.365A1.317,1.317,0,0,1,492.4,103.247Z" transform="translate(-394.101 -101.612)" fill="#a4a9ad"/>
    </g>
    <path id="Path_201" data-name="Path 201" d="M71.333,112.935a3.071,3.071,0,0,1-3.069,3.071H43.234a3.071,3.071,0,0,1-3.069-3.071V87.907a3.069,3.069,0,0,1,3.069-3.069h25.03a3.069,3.069,0,0,1,3.069,3.069Z" fill="#00a8e1"/>
    <path id="Path_202" data-name="Path 202" d="M97.43,111.139c.252-5.462,1.983-7.792,4.754-10.515,0,0,.687.417,1.231.74a11.33,11.33,0,0,1,1.193.849,11.543,11.543,0,0,0-4.052,5.8h0a11.548,11.548,0,0,0,5.8-4.053,11.377,11.377,0,0,1,.849,1.193c.323.545.74,1.231.74,1.231C105.222,109.156,102.892,110.888,97.43,111.139Z" transform="translate(-41.075 -11.323)" fill="#fff" stroke="#43a6dc" stroke-miterlimit="10" stroke-width="1"/>
    <path id="Path_203" data-name="Path 203" d="M66.494,142.07c-5.462.251-7.792,1.983-10.516,4.753,0,0,.418.688.741,1.232a11.336,11.336,0,0,0,.85,1.192,11.548,11.548,0,0,1,5.8-4.053h0a11.55,11.55,0,0,1-4.053,5.8,11.408,11.408,0,0,0,1.192.849c.544.324,1.232.741,1.232.741C64.511,149.862,66.242,147.531,66.494,142.07Z" transform="translate(-11.342 -41.051)" fill="#fff" stroke="#43a6dc" stroke-miterlimit="10" stroke-width="1"/>
    <path id="Path_204" data-name="Path 204" d="M66.494,111.139c-5.462-.252-7.792-1.983-10.516-4.754,0,0,.418-.687.741-1.231a11.34,11.34,0,0,1,.85-1.193,11.543,11.543,0,0,0,5.8,4.053h0a11.548,11.548,0,0,0-4.053-5.8,11.39,11.39,0,0,1,1.192-.849c.544-.323,1.232-.74,1.232-.74C64.511,103.348,66.242,105.677,66.494,111.139Z" transform="translate(-11.342 -11.323)" fill="#fff" stroke="#43a6dc" stroke-miterlimit="10" stroke-width="1"/>
    <path id="Path_205" data-name="Path 205" d="M97.43,142.07c.252,5.461,1.983,7.792,4.754,10.515,0,0,.687-.417,1.231-.741a11.348,11.348,0,0,0,1.193-.849,11.545,11.545,0,0,1-4.052-5.8h0a11.554,11.554,0,0,1,5.8,4.053,11.373,11.373,0,0,0,.849-1.192c.323-.544.74-1.232.74-1.232C105.222,144.053,102.892,142.321,97.43,142.07Z" transform="translate(-41.075 -41.051)" fill="#fff" stroke="#43a6dc" stroke-miterlimit="10" stroke-width="1"/>
  </g>
</svg>
