<svg xmlns="http://www.w3.org/2000/svg" width="58.648" height="57.969" viewBox="0 0 58.648 57.969"><defs><style>.a{fill:#fff;}</style></defs><g transform="translate(-4.834 -5.53)"><path class="a" d="M63.827,5.53l4.668,9.459,10.439,1.517-7.555,7.362,1.783,10.4-9.336-4.909L54.49,34.265l1.784-10.4L48.72,16.506l10.439-1.517Z" transform="translate(-15.452)"/><g transform="translate(4.834 6.292)"><path class="a" d="M18.44,33.917A13.606,13.606,0,1,1,32.045,20.312,13.621,13.621,0,0,1,18.44,33.917Zm0-24.619A11.014,11.014,0,1,0,29.453,20.312,11.027,11.027,0,0,0,18.44,9.3Z" transform="translate(-4.834 -6.706)"/></g><g transform="translate(4.942 36.288)"><path class="a" d="M18.606,80.213a13.606,13.606,0,1,1,13.606-13.6A13.621,13.621,0,0,1,18.606,80.213Zm0-24.619A11.014,11.014,0,1,0,29.619,66.608,11.027,11.027,0,0,0,18.606,55.594Z" transform="translate(-5 -53.002)"/></g><g transform="translate(34.481 36.288)"><path class="a" d="M64.2,80.213a13.606,13.606,0,1,1,13.6-13.6A13.621,13.621,0,0,1,64.2,80.213Zm0-24.619A11.014,11.014,0,1,0,75.21,66.608,11.027,11.027,0,0,0,64.2,55.594Z" transform="translate(-50.591 -53.002)"/></g></g></svg>