<svg xmlns="http://www.w3.org/2000/svg" width="86" height="48.581" viewBox="0 0 86 48.581"><defs><style>.a{fill:#fff;}</style></defs><g transform="translate(-1.999 -16.358)"><path class="a" d="M87.907,42.866,77.649,17.179a1.305,1.305,0,0,0-1.68-.734L65.018,20.67a1.3,1.3,0,0,0-.744,1.691l.67,1.7L59.962,25.4l-7.328-2.463a14.521,14.521,0,0,0-10.061.31,5.414,5.414,0,0,0-2.514-1.029,7.241,7.241,0,0,0-4.6.924l-6.27,3.54L26.566,25.4l.972-1.939a1.3,1.3,0,0,0-.589-1.753L16.425,16.521a1.3,1.3,0,0,0-1.737.579L2.141,41.769a1.3,1.3,0,0,0,.571,1.753l10.595,5.389a1.3,1.3,0,0,0,1.755-.577l.8-1.6,3.559,2.216a3.757,3.757,0,0,0,1.441,4.019l.915.659a3.794,3.794,0,0,0,2.231.722l.014,0a4.231,4.231,0,0,0,.073.667A3.965,3.965,0,0,0,28,58.182c.1,0,.19-.03.285-.036.007.087,0,.173.009.261a3.9,3.9,0,0,0,3.895,3.4,4.2,4.2,0,0,0,1.274-.225,4.252,4.252,0,0,0,3.892,2.628,3.5,3.5,0,0,0,2.816-1.334l.688-.9c1.44,1.183,4.045,2.967,6.679,2.967a5.358,5.358,0,0,0,1.037-.1,5.481,5.481,0,0,0,3.814-3.053,5.48,5.48,0,0,0,1.125.132h.018c2.115-.008,3.975-1.268,5.548-3.719a5.655,5.655,0,0,0,1.251.16c.106,0,.214,0,.321-.01,2.117-.132,3.862-1.531,5.2-4.131a4.692,4.692,0,0,0,.7.1q.086,0,.172,0A4.01,4.01,0,0,0,69.891,52.8a6.291,6.291,0,0,0,1.728-4.585,4.559,4.559,0,0,0-.2-.988l2.348-.708.681,1.732a1.3,1.3,0,0,0,.7.721,1.312,1.312,0,0,0,.516.107,1.3,1.3,0,0,0,.485-.094l11.04-4.424A1.3,1.3,0,0,0,87.907,42.866ZM13.321,45.995,5.056,41.789,16.427,19.428l8.193,4.034-.976,1.947,0,0v0Zm9.068,4.862a1.175,1.175,0,0,1-.474-.769,1.154,1.154,0,0,1,.214-.869,1.2,1.2,0,0,1,.971-.489,1.211,1.211,0,0,1,.711.229l.915.661a1.165,1.165,0,0,1,.262,1.638,1.212,1.212,0,0,1-1.682.259Zm4.863,4.507a1.4,1.4,0,0,1-.607-.9,1.881,1.881,0,0,1,.281-1.406l.738-1.138a1.7,1.7,0,0,1,2.28-.663,1.4,1.4,0,0,1,.609.9,1.877,1.877,0,0,1-.281,1.4L29.532,54.7A1.7,1.7,0,0,1,27.251,55.364Zm4.132,3.574a1.321,1.321,0,0,1-.509-.887,1.634,1.634,0,0,1,.337-1.218l2.477-3.239a1.543,1.543,0,0,1,2.121-.41,1.317,1.317,0,0,1,.508.886,1.636,1.636,0,0,1-.337,1.22l-.173.227,0,0-1.965,2.571h0l-.335.438A1.543,1.543,0,0,1,31.383,58.938Zm5.009,2.326a1.53,1.53,0,0,1-.622-.984.809.809,0,0,1,.138-.609L37.8,57.2l.076-.1a.9.9,0,0,1,.735-.317,1.652,1.652,0,0,1,.972.343,1.528,1.528,0,0,1,.62.982.805.805,0,0,1-.138.61L38.1,61.288A1.261,1.261,0,0,1,36.392,61.264ZM67.886,51.133a1.407,1.407,0,0,1-1.231.58c-2.679-.1-7.266-5.193-9.528-8.378A1.3,1.3,0,0,0,55,44.842c.533.752,4.43,6.112,8.424,8.417-.863,1.583-1.849,2.422-2.94,2.49-3.056.219-7.152-5.193-8.333-7.095a1.3,1.3,0,1,0-2.215,1.371c.4.65,3.183,5.011,6.694,7.152-.986,1.406-2.029,2.13-3.109,2.136h-.012c-2.61,0-5.409-3.83-6.269-5.307a1.3,1.3,0,0,0-2.254,1.307,17.559,17.559,0,0,0,4.974,5.448,2.874,2.874,0,0,1-1.884,1.522c-1.839.357-4.263-1.252-5.673-2.421a3.423,3.423,0,0,0,.38-2.108,4.153,4.153,0,0,0-1.637-2.712,4.237,4.237,0,0,0-2.229-.84,4.375,4.375,0,0,0-.018-.489A3.9,3.9,0,0,0,37.376,51.1a4.067,4.067,0,0,0-4.5-.2,3.935,3.935,0,0,0-1.527-1.84,4.118,4.118,0,0,0-3.961-.215,3.761,3.761,0,0,0-1.135-1.339l-.915-.659a3.813,3.813,0,0,0-4.405-.027L17.037,44.4,25.4,27.727l3.259,1.6a1.308,1.308,0,0,0,1.216-.035l6.868-3.879a4.653,4.653,0,0,1,2.932-.616h0a12.813,12.813,0,0,0-4.637,5.8c-1.668,4.309.347,6.627,1.657,7.256a4.978,4.978,0,0,0,4.1.249c1.951-.79,3.062-2.8,3.651-4.344a1.989,1.989,0,0,1,1.059-1.11,2.029,2.029,0,0,1,1.725.033l7.924,3.9a31.022,31.022,0,0,1,8.545,6.2,53.209,53.209,0,0,0,4.213,3.869,2.736,2.736,0,0,1,1.115,1.814A3.856,3.856,0,0,1,67.886,51.133ZM69.9,44.958c-.113-.107-.208-.222-.334-.324a50.6,50.6,0,0,1-4.005-3.68A33.655,33.655,0,0,0,56.3,34.237l-7.925-3.9a4.634,4.634,0,0,0-6.369,2.489c-.331.869-1.057,2.4-2.194,2.856a2.427,2.427,0,0,1-1.973-.173c-.162-.09-1.541-.96-.374-3.975a10.375,10.375,0,0,1,4.478-5.1A11.935,11.935,0,0,1,51.8,25.411L59.5,28a1.306,1.306,0,0,0,.754.025L65.9,26.506l6.9,17.578Zm6.488,1.118L67.18,22.628l8.527-3.288L85,42.624Z" transform="translate(0 0)"/><path class="a" d="M9.947,33.517a1.3,1.3,0,0,0-1.42.274,1.321,1.321,0,0,0,0,1.85,1.37,1.37,0,0,0,.925.378,1.3,1.3,0,0,0,.912-2.228A1.287,1.287,0,0,0,9.947,33.517Z" transform="translate(1.863 5.168)"/><path class="a" d="M61.662,36.019a1.3,1.3,0,0,0,.912-2.228,1.28,1.28,0,0,0-1.407-.274,1.216,1.216,0,0,0-.43.274,1.321,1.321,0,0,0,0,1.85A1.37,1.37,0,0,0,61.662,36.019Z" transform="translate(17.684 5.168)"/></g></svg>